<svg xmlns="http://www.w3.org/2000/svg" width="68" height="68" fill="none"><mask id="a" width="68" height="68" x="0" y="0" maskUnits="userSpaceOnUse" style="mask-type:alpha"><path fill="#D9D9D9" d="M0 0h68v68H0z"/></mask><g mask="url(#a)"><path fill="#7E9BBC" stroke="#7E9BBC" stroke-width=".089" d="M60.164 29.417v13.605H55.53v-5.729l-.076.076-20.796 20.795-10.356-9.039-.032-.027-11.207 11.208H6.48l17.603-17.604 10.36 9.087.03.027 17.691-17.69.075-.076h-5.73v-4.633h13.654Zm-46.56.188v16.087l-6.996 6.995v-23.08h6.996ZM41.37 6.42v31.293l-6.995 6.995V6.419h6.995ZM27.486 17.99v21.006l-3.466-3.374-.03-.03-.032.03-3.466 3.374V17.988h6.994Z"/></g></svg>