<svg xmlns="http://www.w3.org/2000/svg" width="24" height="24" fill="none"><g clip-path="url(#a)"><rect width="24" height="24" fill="#CDD1BF" rx="5.333"/><path fill="#E2C6C4" d="M-3.499-3.465h31.232v30.93H-3.499z"/><path fill="url(#b)" d="M-3.499-3.465h31.232v30.93H-3.499z"/><path fill="url(#c)" d="M-3.499-3.465h31.232v30.93H-3.499z"/><path fill="url(#d)" d="M-3.499-3.465h31.232v30.93H-3.499z"/><path fill="url(#e)" d="M-3.499-3.465h31.232v30.93H-3.499z"/><path fill="url(#f)" d="M-3.499-3.465h31.232v30.93H-3.499z"/><g filter="url(#g)" opacity=".3" style="mix-blend-mode:soft-light"><path fill="#090A0C" d="M-3.499-3.465h31.232v30.93H-3.499z"/><path fill="url(#h)" fill-opacity=".7" d="M-3.499-3.465h31.232v30.93H-3.499z"/><path fill="url(#i)" fill-opacity=".8" d="M-3.499-3.465h31.232v30.93H-3.499z"/><path fill="url(#j)" fill-opacity=".5" d="M-3.499-3.465h31.232v30.93H-3.499z"/><path fill="url(#k)" fill-opacity=".9" d="M-3.499-3.465h31.232v30.93H-3.499z"/><path fill="url(#l)" fill-opacity=".2" d="M-3.499-3.465h31.232v30.93H-3.499z"/></g><path fill="#fff" stroke="#fff" stroke-linecap="round" stroke-linejoin="round" stroke-width=".75" d="M13.053 5.618 8.33 12.406a.563.563 0 0 0-.09.243.67.67 0 0 0 .018.274.479.479 0 0 0 .122.213.26.26 0 0 0 .183.08h1.85v5.7l4.724-6.789a.562.562 0 0 0 .09-.243.67.67 0 0 0-.019-.274.478.478 0 0 0-.121-.213.266.266 0 0 0-.184-.08h-1.85v-5.7Z"/></g><defs><radialGradient id="b" cx="0" cy="0" r="1" gradientTransform="matrix(31.2321 20.9615 -35.4436 47.517 -8.704 .168)" gradientUnits="userSpaceOnUse"><stop stop-color="#9D403C"/><stop offset="1" stop-color="#9D403C" stop-opacity="0"/></radialGradient><radialGradient id="c" cx="0" cy="0" r="1" gradientTransform="matrix(-12.9643 13.8812 -14.0168 -11.7789 26.85 -1.881)" gradientUnits="userSpaceOnUse"><stop stop-color="#F5ECEB"/><stop offset="1" stop-color="#F5ECEB" stop-opacity="0"/></radialGradient><radialGradient id="d" cx="0" cy="0" r="1" gradientTransform="matrix(17.875 -6.05555 6.11473 16.2406 -6.936 31.005)" gradientUnits="userSpaceOnUse"><stop stop-color="#F5ECEB"/><stop offset="1" stop-color="#F5ECEB" stop-opacity="0"/></radialGradient><radialGradient id="e" cx="0" cy="0" r="1" gradientTransform="matrix(17.4821 18.2598 -10.9889 9.46635 14.475 13.211)" gradientUnits="userSpaceOnUse"><stop stop-color="#9D403C"/><stop offset="1" stop-color="#9D403C" stop-opacity="0"/></radialGradient><radialGradient id="f" cx="0" cy="0" r="1" gradientTransform="scale(-12.91733 -12.25289) rotate(45 1.766 -3.961)" gradientUnits="userSpaceOnUse"><stop stop-color="#AF4E30"/><stop offset="1" stop-color="#AF4E30" stop-opacity="0"/></radialGradient><radialGradient id="i" cx="0" cy="0" r="1" gradientTransform="matrix(17.6917 9.57354 -10.2556 17.6615 -5.267 1.414)" gradientUnits="userSpaceOnUse"><stop offset=".259" stop-color="#9D9D9D"/><stop offset="1" stop-color="#9D9D9D" stop-opacity="0"/></radialGradient><radialGradient id="j" cx="0" cy="0" r="1" gradientTransform="matrix(18.5625 17.3981 -2.5096 2.35218 3.77 5.464)" gradientUnits="userSpaceOnUse"><stop stop-color="#9D9D9D"/><stop offset="1" stop-color="#9D9D9D" stop-opacity="0"/></radialGradient><radialGradient id="k" cx="0" cy="0" r="1" gradientTransform="matrix(23.5714 9.48149 -2.00864 4.38674 6.323 -5.95)" gradientUnits="userSpaceOnUse"><stop stop-color="#9D9D9D"/><stop offset="1" stop-color="#9D9D9D" stop-opacity="0"/></radialGradient><radialGradient id="l" cx="0" cy="0" r="1" gradientTransform="matrix(13.75 21.4484 -2.7339 1.53964 -5.561 4.912)" gradientUnits="userSpaceOnUse"><stop stop-color="#9D9D9D"/><stop offset="1" stop-color="#9D9D9D" stop-opacity="0"/></radialGradient><linearGradient id="h" x1="21.35" x2="2.859" y1="3.163" y2="20.831" gradientUnits="userSpaceOnUse"><stop offset=".1" stop-color="#9D9D9D" stop-opacity="0"/><stop offset=".3" stop-color="#9D9D9D"/><stop offset=".6" stop-color="#9D9D9D"/><stop offset=".85" stop-color="#9D9D9D" stop-opacity=".42"/></linearGradient><clipPath id="a"><rect width="24" height="24" fill="#fff" rx="5.333"/></clipPath><filter id="g" width="31.232" height="30.93" x="-3.499" y="-3.465" color-interpolation-filters="sRGB" filterUnits="userSpaceOnUse"><feFlood flood-opacity="0" result="BackgroundImageFix"/><feBlend in="SourceGraphic" in2="BackgroundImageFix" result="shape"/><feTurbulence baseFrequency="4.1666665077209473 4.1666665077209473" numOctaves="3" result="noise" seed="4633" stitchTiles="stitch" type="fractalNoise"/><feColorMatrix in="noise" result="alphaNoise" type="luminanceToAlpha"/><feComponentTransfer in="alphaNoise" result="coloredNoise1"><feFuncA tableValues="1 1 1 1 1 1 1 1 1 1 1 1 1 1 1 1 1 1 1 1 1 1 1 1 1 1 1 1 1 1 1 1 1 1 1 1 1 1 1 1 1 1 1 1 1 1 1 1 1 1 1 0 0 0 0 0 0 0 0 0 0 0 0 0 0 0 0 0 0 0 0 0 0 0 0 0 0 0 0 0 0 0 0 0 0 0 0 0 0 0 0 0 0 0 0 0 0 0 0 0" type="discrete"/></feComponentTransfer><feComposite in="coloredNoise1" in2="shape" operator="in" result="noise1Clipped"/><feFlood flood-color="#000" result="color1Flood"/><feComposite in="color1Flood" in2="noise1Clipped" operator="in" result="color1"/><feMerge result="effect1_noise_5083_7462"><feMergeNode in="shape"/><feMergeNode in="color1"/></feMerge></filter></defs></svg>