<svg fill="white" xmlns="http://www.w3.org/2000/svg" xmlns:xlink="http://www.w3.org/1999/xlink" viewBox="0 0 238.145 19.855" overflow="visible"><path d="M 0 0 L 0 11.702 L 5.621 19.855 L 12.131 19.855 L 8.721 11.702 L 16.405 11.702 L 16.405 0 Z M 77.786 7.066 L 80.796 7.066 L 80.796 8.362 C 81.18 7.585 82.171 6.848 83.348 6.848 C 84.782 6.848 86.134 7.575 86.57 8.902 C 87.005 7.625 88.099 6.848 89.486 6.848 C 91.918 6.848 93.273 8.568 93.273 11.317 L 93.273 16.953 L 90.264 16.953 L 90.264 11.832 C 90.264 10.388 89.845 9.558 88.828 9.558 C 87.812 9.558 87.034 10.349 87.034 12.148 L 87.034 16.953 L 84.025 16.953 L 84.025 11.832 C 84.025 10.388 83.606 9.558 82.589 9.558 C 81.572 9.558 80.796 10.349 80.796 12.148 L 80.796 16.953 L 77.786 16.953 Z M 65.886 12.701 L 65.886 7.066 L 68.896 7.066 L 68.896 12.187 C 68.896 13.631 69.314 14.462 70.43 14.462 C 71.546 14.462 72.304 13.69 72.304 11.87 L 72.304 7.065 L 75.314 7.065 L 75.314 16.953 L 72.303 16.953 L 72.303 15.655 C 71.862 16.549 70.949 17.169 69.653 17.169 C 67.181 17.169 65.886 15.391 65.886 12.701 M 63.534 7.066 L 60.524 7.066 L 60.524 16.953 L 63.534 16.953 L 63.534 7.065 Z M 63.534 2.554 L 60.505 2.554 L 60.505 5.271 L 63.534 5.271 L 63.534 2.554 Z M 47.594 12.009 C 47.594 9.201 49.608 6.848 52.218 6.848 C 53.554 6.848 54.643 7.52 55.042 8.054 L 55.042 2.554 L 58.052 2.554 L 58.052 16.952 L 55.041 16.952 L 55.041 15.676 C 54.611 16.429 53.553 17.17 52.218 17.17 C 49.608 17.17 47.594 14.817 47.594 12.009 Z M 55.169 12.009 C 55.169 10.586 54.252 9.557 52.897 9.557 C 51.541 9.557 50.624 10.585 50.624 12.009 C 50.624 13.433 51.541 14.462 52.897 14.462 C 54.252 14.462 55.169 13.433 55.169 12.009 Z M 35.854 12.009 C 35.854 9.102 38.226 6.848 41.096 6.848 C 43.966 6.848 46.338 9.102 46.338 12.009 C 46.338 14.916 43.966 17.17 41.095 17.17 C 38.226 17.17 35.854 14.916 35.854 12.009 Z M 43.308 12.009 C 43.308 10.605 42.352 9.636 41.096 9.636 C 39.84 9.636 38.883 10.605 38.883 12.009 C 38.883 13.413 39.84 14.382 41.096 14.382 C 42.351 14.382 43.308 13.413 43.308 12.009 Z M 30.272 12.504 L 27.777 12.504 L 27.777 16.952 L 24.607 16.952 L 24.607 2.913 L 30.274 2.913 C 33.123 2.913 35.257 5.009 35.257 7.718 C 35.257 10.427 33.123 12.503 30.274 12.503 Z M 30.133 5.879 L 27.776 5.879 L 27.776 9.557 L 30.133 9.557 C 31.268 9.557 32.086 8.746 32.086 7.718 C 32.086 6.69 31.268 5.879 30.133 5.879 Z M 103.28 17.49 L 98.738 17.49 C 98.414 17.49 98.231 17.309 98.231 16.983 L 98.231 16.639 C 98.231 16.335 98.353 16.193 98.637 16.091 L 99.164 15.888 C 99.59 15.747 99.732 15.544 99.732 15.118 L 99.732 5.67 C 99.732 5.244 99.59 5.041 99.164 4.899 L 98.637 4.697 C 98.353 4.595 98.231 4.453 98.231 4.149 L 98.231 3.804 C 98.231 3.48 98.414 3.297 98.738 3.297 L 103.28 3.297 C 103.605 3.297 103.787 3.48 103.787 3.804 L 103.787 4.149 C 103.787 4.453 103.645 4.595 103.362 4.697 L 102.834 4.899 C 102.429 5.041 102.287 5.244 102.287 5.669 L 102.287 8.954 C 102.284 9.02 102.309 9.083 102.355 9.13 C 102.401 9.176 102.465 9.201 102.53 9.198 L 108.39 9.198 C 108.455 9.201 108.519 9.176 108.565 9.13 C 108.611 9.083 108.636 9.02 108.633 8.954 L 108.633 5.67 C 108.633 5.244 108.491 5.041 108.065 4.899 L 107.538 4.697 C 107.255 4.595 107.133 4.453 107.133 4.149 L 107.133 3.804 C 107.133 3.48 107.315 3.297 107.619 3.297 L 112.182 3.297 C 112.485 3.297 112.668 3.48 112.668 3.804 L 112.668 4.149 C 112.668 4.453 112.546 4.595 112.262 4.697 L 111.735 4.899 C 111.329 5.041 111.188 5.244 111.188 5.669 L 111.188 15.118 C 111.188 15.544 111.329 15.747 111.735 15.888 L 112.262 16.091 C 112.546 16.193 112.668 16.335 112.668 16.639 L 112.668 16.983 C 112.668 17.308 112.485 17.49 112.182 17.49 L 107.619 17.49 C 107.315 17.49 107.133 17.309 107.133 16.983 L 107.133 16.639 C 107.133 16.335 107.255 16.193 107.538 16.091 L 108.065 15.888 C 108.491 15.747 108.633 15.544 108.633 15.118 L 108.633 10.982 C 108.636 10.917 108.611 10.853 108.565 10.807 C 108.518 10.761 108.455 10.736 108.39 10.739 L 102.53 10.739 C 102.465 10.736 102.402 10.761 102.356 10.807 C 102.309 10.853 102.285 10.916 102.287 10.981 L 102.287 15.118 C 102.287 15.544 102.429 15.747 102.834 15.888 L 103.362 16.091 C 103.645 16.193 103.787 16.335 103.787 16.639 L 103.787 16.983 C 103.787 17.308 103.605 17.49 103.28 17.49 Z M 119.436 17.714 C 116.496 17.714 114.367 15.544 114.367 12.462 C 114.367 9.38 116.496 7.211 119.436 7.211 C 122.376 7.211 124.525 9.38 124.525 12.462 C 124.525 15.544 122.376 17.714 119.436 17.714 Z M 119.861 15.969 C 121.221 15.969 122.173 14.976 122.173 13.192 C 122.173 10.921 120.916 8.954 119.031 8.954 C 117.672 8.954 116.719 9.948 116.719 11.732 C 116.719 14.003 117.976 15.969 119.861 15.969 Z M 130.69 17.49 L 126.676 17.49 C 126.352 17.49 126.169 17.309 126.169 16.983 L 126.169 16.659 C 126.169 16.375 126.311 16.213 126.595 16.131 L 126.96 16.01 C 127.366 15.889 127.507 15.686 127.507 15.24 L 127.507 10.434 C 127.507 9.826 127.345 9.562 126.615 9.38 C 126.291 9.299 126.169 9.177 126.169 8.874 L 126.169 8.589 C 126.169 8.326 126.291 8.163 126.595 8.062 L 128.906 7.292 C 129.413 7.11 129.758 7.292 129.758 7.839 L 129.758 8.204 C 129.758 8.406 129.92 8.468 130.082 8.367 L 130.447 8.163 C 131.401 7.575 132.312 7.211 133.266 7.211 C 134.259 7.211 134.929 7.616 135.455 8.305 C 135.638 8.528 135.739 8.549 135.922 8.426 L 136.287 8.184 C 137.239 7.555 138.233 7.211 139.207 7.211 C 140.849 7.211 141.741 8.265 141.741 10.049 L 141.741 15.239 C 141.741 15.686 141.882 15.888 142.308 16.01 L 142.653 16.131 C 142.937 16.213 143.079 16.375 143.079 16.659 L 143.079 16.983 C 143.079 17.308 142.896 17.49 142.593 17.49 L 139.875 17.49 C 139.551 17.49 139.368 17.309 139.368 16.983 L 139.368 10.414 C 139.368 9.482 139.085 9.016 138.335 9.016 C 137.564 9.016 136.794 9.319 136.205 9.644 C 135.902 9.826 135.8 10.029 135.8 10.353 L 135.8 15.239 C 135.8 15.686 135.942 15.888 136.347 16.01 L 136.712 16.131 C 136.996 16.213 137.138 16.375 137.138 16.659 L 137.138 16.983 C 137.138 17.308 136.956 17.49 136.631 17.49 L 133.915 17.49 C 133.61 17.49 133.408 17.309 133.408 16.983 L 133.408 10.414 C 133.408 9.482 133.144 9.016 132.374 9.016 C 131.644 9.016 130.853 9.319 130.285 9.644 C 129.961 9.826 129.859 10.009 129.859 10.353 L 129.859 15.239 C 129.859 15.686 130.002 15.888 130.406 16.01 L 130.772 16.131 C 131.055 16.213 131.197 16.375 131.197 16.659 L 131.197 16.983 C 131.197 17.308 131.015 17.49 130.69 17.49 Z M 153.669 14.469 C 153.933 14.651 153.974 14.916 153.771 15.382 C 153.284 16.578 151.926 17.714 149.573 17.714 C 146.593 17.714 144.444 15.584 144.444 12.462 C 144.444 9.319 146.492 7.211 149.27 7.211 C 151.439 7.211 153 8.406 153.507 10.475 C 153.589 10.86 153.467 11.043 153.142 11.165 L 147.323 13.314 C 147.181 13.374 147.141 13.496 147.201 13.638 C 147.708 14.834 148.823 15.645 150.324 15.645 C 151.439 15.645 152.27 15.219 152.777 14.693 C 153.041 14.429 153.365 14.287 153.669 14.469 Z M 149.148 8.751 C 147.749 8.751 146.694 9.806 146.694 11.569 L 146.694 11.752 C 146.715 11.894 146.796 11.955 146.978 11.874 L 150.77 10.414 C 150.933 10.354 151.034 10.252 150.972 10.029 C 150.669 9.177 149.939 8.752 149.148 8.752 Z M 165.431 17.693 C 163.951 17.693 163.221 17.348 162.471 17.348 C 161.985 17.348 161.66 17.653 161.214 17.653 L 161.031 17.653 C 160.747 17.653 160.545 17.51 160.363 17.166 L 158.7 13.638 C 158.517 13.294 158.578 12.989 158.923 12.827 L 159.247 12.665 C 159.592 12.503 159.856 12.563 160.079 12.908 C 161.457 15.017 163.282 16.152 165.127 16.152 C 166.79 16.152 167.702 15.402 167.702 14.104 C 167.702 12.807 166.77 12.158 165.188 11.61 L 162.715 10.799 C 160.707 10.13 159.146 9.015 159.146 6.886 C 159.146 4.656 160.849 3.095 163.809 3.095 C 164.782 3.095 165.431 3.358 166.08 3.358 C 166.648 3.358 166.83 3.095 167.215 3.095 L 167.357 3.095 C 167.702 3.095 167.824 3.277 167.986 3.602 L 169.466 6.663 C 169.587 6.927 169.527 7.17 169.243 7.353 L 169.02 7.474 C 168.736 7.637 168.452 7.596 168.25 7.332 C 166.566 5.385 165.391 4.595 163.931 4.595 C 162.451 4.595 161.639 5.284 161.639 6.36 C 161.639 7.353 162.492 7.94 163.951 8.406 L 166.344 9.177 C 168.472 9.826 170.358 10.881 170.379 13.496 C 170.399 16.173 168.33 17.693 165.431 17.693 Z M 181.351 14.469 C 181.614 14.651 181.654 14.916 181.452 15.382 C 180.965 16.578 179.606 17.714 177.255 17.714 C 174.274 17.714 172.125 15.584 172.125 12.462 C 172.125 9.319 174.173 7.211 176.951 7.211 C 179.12 7.211 180.681 8.406 181.188 10.475 C 181.269 10.86 181.147 11.043 180.823 11.165 L 175.004 13.314 C 174.862 13.374 174.821 13.496 174.883 13.638 C 175.389 14.834 176.504 15.645 178.005 15.645 C 179.12 15.645 179.952 15.219 180.459 14.693 C 180.722 14.429 181.046 14.287 181.351 14.469 Z M 176.829 8.751 C 175.43 8.751 174.376 9.806 174.376 11.569 L 174.376 11.752 C 174.396 11.894 174.477 11.955 174.66 11.874 L 178.451 10.414 C 178.613 10.354 178.715 10.252 178.654 10.029 C 178.349 9.177 177.619 8.752 176.829 8.752 Z M 187.562 17.49 L 183.345 17.49 C 183.02 17.49 182.838 17.309 182.838 16.983 L 182.838 16.659 C 182.838 16.375 182.98 16.213 183.263 16.131 L 183.628 16.01 C 184.034 15.889 184.176 15.686 184.176 15.24 L 184.176 10.434 C 184.176 9.826 184.014 9.562 183.284 9.38 C 182.96 9.299 182.838 9.177 182.838 8.874 L 182.838 8.589 C 182.838 8.326 182.96 8.163 183.263 8.062 L 185.575 7.292 C 186.082 7.11 186.426 7.292 186.426 7.839 L 186.426 8.306 C 186.426 8.528 186.63 8.609 186.832 8.406 C 187.542 7.758 188.536 7.271 189.529 7.271 C 190.076 7.271 190.319 7.535 190.279 8.021 L 190.056 9.948 C 190.016 10.312 189.812 10.495 189.549 10.495 C 189.305 10.495 189.164 10.394 188.86 10.151 C 188.454 9.683 188.11 9.461 187.644 9.461 C 186.913 9.461 186.528 9.867 186.528 10.739 L 186.528 15.239 C 186.528 15.666 186.67 15.909 187.075 16.01 L 187.663 16.131 C 187.907 16.193 188.069 16.335 188.069 16.659 L 188.069 16.983 C 188.069 17.308 187.887 17.49 187.562 17.49 Z M 196.615 17.49 L 195.642 17.49 C 195.373 17.5 195.128 17.337 195.034 17.085 L 192.317 10.131 C 192.033 9.401 191.83 9.096 191.486 8.954 L 191.08 8.792 C 190.816 8.691 190.715 8.549 190.715 8.245 L 190.715 7.94 C 190.715 7.637 190.897 7.433 191.202 7.433 L 193.574 7.433 C 193.858 7.433 194.04 7.555 194.142 7.86 L 196.372 14.307 C 196.453 14.51 196.615 14.51 196.696 14.307 L 198.379 9.523 C 198.48 9.177 198.44 8.995 198.157 8.874 L 197.689 8.691 C 197.467 8.61 197.386 8.468 197.386 8.245 L 197.386 7.94 C 197.386 7.637 197.568 7.433 197.893 7.433 L 200.853 7.433 C 201.157 7.433 201.359 7.637 201.359 7.94 L 201.359 8.245 C 201.359 8.488 201.217 8.63 201.015 8.731 L 200.691 8.874 C 200.346 9.055 200.102 9.34 199.819 10.09 L 197.203 17.065 C 197.081 17.389 196.879 17.49 196.615 17.49 Z M 204.435 5.811 C 203.462 5.811 202.772 5.183 202.772 4.352 C 202.772 3.5 203.462 2.892 204.435 2.892 C 205.429 2.892 206.098 3.5 206.098 4.352 C 206.098 5.203 205.429 5.812 204.435 5.812 Z M 206.645 17.49 L 202.63 17.49 C 202.306 17.49 202.123 17.309 202.123 16.983 L 202.123 16.659 C 202.123 16.375 202.265 16.213 202.55 16.131 L 202.914 16.01 C 203.32 15.889 203.462 15.686 203.462 15.24 L 203.462 10.474 C 203.462 9.866 203.3 9.602 202.57 9.42 C 202.245 9.338 202.123 9.217 202.123 8.913 L 202.123 8.629 C 202.123 8.366 202.245 8.203 202.55 8.101 L 204.962 7.29 C 205.49 7.109 205.814 7.29 205.814 7.838 L 205.814 15.238 C 205.814 15.685 205.956 15.887 206.362 16.009 L 206.726 16.13 C 207.01 16.213 207.152 16.374 207.152 16.658 L 207.152 16.983 C 207.152 17.307 206.97 17.49 206.645 17.49 Z M 213.707 17.714 C 210.505 17.714 208.558 15.544 208.558 12.462 C 208.558 9.319 210.544 7.252 213.322 7.252 C 214.012 7.252 214.438 7.454 214.945 7.454 C 215.391 7.454 215.573 7.271 215.836 7.271 C 216.1 7.271 216.222 7.413 216.343 7.637 L 217.398 10.009 C 217.52 10.333 217.418 10.597 217.175 10.718 L 217.074 10.779 C 216.79 10.921 216.526 10.86 216.324 10.617 C 215.188 9.319 214.418 8.691 213.322 8.691 C 212.025 8.691 210.89 9.704 210.89 11.55 C 210.89 13.983 212.39 15.624 214.519 15.624 C 215.451 15.624 216.08 15.361 216.547 14.936 C 216.891 14.631 217.134 14.551 217.398 14.712 C 217.662 14.895 217.742 15.159 217.499 15.666 C 216.891 16.943 215.471 17.714 213.707 17.714 Z M 228.04 14.469 C 228.303 14.651 228.344 14.916 228.141 15.382 C 227.655 16.578 226.296 17.714 223.944 17.714 C 220.963 17.714 218.814 15.584 218.814 12.462 C 218.814 9.319 220.862 7.211 223.64 7.211 C 225.81 7.211 227.37 8.406 227.877 10.475 C 227.959 10.86 227.837 11.043 227.512 11.165 L 221.693 13.314 C 221.552 13.374 221.511 13.496 221.572 13.638 C 222.078 14.834 223.194 15.645 224.695 15.645 C 225.81 15.645 226.641 15.219 227.148 14.693 C 227.411 14.429 227.735 14.287 228.04 14.469 Z M 223.518 8.751 C 222.119 8.751 221.065 9.806 221.065 11.569 L 221.065 11.752 C 221.085 11.894 221.167 11.955 221.349 11.874 L 225.14 10.414 C 225.303 10.354 225.404 10.252 225.343 10.029 C 225.039 9.177 224.309 8.752 223.518 8.752 Z M 234.413 17.693 C 233.4 17.693 232.812 17.43 232.305 17.43 C 231.819 17.43 231.636 17.653 231.291 17.653 C 231.007 17.653 230.866 17.51 230.744 17.267 L 229.447 14.732 C 229.304 14.43 229.385 14.145 229.669 14.003 L 229.892 13.861 C 230.156 13.74 230.419 13.78 230.642 14.064 C 231.717 15.503 232.954 16.274 234.292 16.274 C 235.347 16.274 235.874 15.807 235.874 15.037 C 235.874 14.287 235.306 13.84 234.09 13.476 L 232.488 12.989 C 230.784 12.482 229.71 11.732 229.71 10.069 C 229.71 8.406 230.967 7.271 233.156 7.271 C 233.846 7.271 234.374 7.453 234.961 7.453 C 235.407 7.453 235.631 7.271 235.874 7.271 C 236.117 7.271 236.218 7.373 236.32 7.596 L 237.415 9.806 C 237.556 10.069 237.496 10.312 237.253 10.434 L 237.131 10.516 C 236.867 10.637 236.624 10.658 236.401 10.414 C 235.184 9.177 234.292 8.589 233.278 8.589 C 232.285 8.589 231.839 9.035 231.839 9.644 C 231.839 10.313 232.366 10.677 233.643 11.043 L 235.225 11.51 C 237.07 12.037 238.124 12.888 238.145 14.591 C 238.145 16.598 236.645 17.693 234.413 17.693 Z" fill="rgb(255,254,252)"></path></svg>