<svg width="342" height="61" viewBox="0 0 342 61" fill="none" xmlns="http://www.w3.org/2000/svg">
<path d="M22 9.5H35V25.25H15.3788V36.8H35V51.5H0V31.5C0 19.3497 9.84974 9.5 22 9.5Z" fill="white"/>
<path d="M88.4562 23.89H85.1035C84.8538 22.6416 84.402 21.4884 83.7481 20.4302C83.1061 19.3602 82.2976 18.4269 81.3227 17.6303C80.3478 16.8338 79.2421 16.2155 78.0056 15.7756C76.7691 15.3357 75.4316 15.1158 73.993 15.1158C71.6865 15.1158 69.5821 15.7162 67.6798 16.917C65.7895 18.1178 64.2736 19.8833 63.1322 22.2136C62.0027 24.532 61.438 27.3735 61.438 30.7382C61.438 34.1266 62.0027 36.98 63.1322 39.2984C64.2736 41.6168 65.7895 43.3764 67.6798 44.5772C69.5821 45.7661 71.6865 46.3606 73.993 46.3606C75.4316 46.3606 76.7691 46.1406 78.0056 45.7007C79.2421 45.2608 80.3478 44.6486 81.3227 43.8639C82.2976 43.0673 83.1061 42.134 83.7481 41.064C84.402 39.9939 84.8538 38.8347 85.1035 37.5864H88.4562C88.159 39.2627 87.6002 40.8262 86.7798 42.2767C85.9714 43.7152 84.937 44.9755 83.6768 46.0574C82.4284 47.1393 80.9898 47.9835 79.361 48.5898C77.7322 49.1962 75.9428 49.4993 73.993 49.4993C70.9256 49.4993 68.203 48.7325 65.8251 47.1988C63.4473 45.6532 61.5807 43.4775 60.2253 40.6716C58.8818 37.8658 58.2101 34.5546 58.2101 30.7382C58.2101 26.9217 58.8818 23.6106 60.2253 20.8047C61.5807 17.9989 63.4473 15.8291 65.8251 14.2954C68.203 12.7498 70.9256 11.977 73.993 11.977C75.9428 11.977 77.7322 12.2802 79.361 12.8865C80.9898 13.481 82.4284 14.3251 83.6768 15.4189C84.937 16.5009 85.9714 17.7611 86.7798 19.1997C87.6002 20.6383 88.159 22.2017 88.4562 23.89ZM98.8043 12.4764V49H95.6299V12.4764H98.8043ZM117.851 49.5707C115.485 49.5707 113.392 48.9703 111.573 47.7695C109.766 46.5687 108.351 44.9101 107.329 42.7938C106.306 40.6657 105.795 38.2105 105.795 35.4285C105.795 32.6226 106.306 30.1556 107.329 28.0274C108.351 25.8874 109.766 24.2229 111.573 23.034C113.392 21.8332 115.485 21.2328 117.851 21.2328C120.217 21.2328 122.303 21.8332 124.11 23.034C125.918 24.2348 127.332 25.8993 128.355 28.0274C129.389 30.1556 129.906 32.6226 129.906 35.4285C129.906 38.2105 129.395 40.6657 128.373 42.7938C127.35 44.9101 125.93 46.5687 124.11 47.7695C122.303 48.9703 120.217 49.5707 117.851 49.5707ZM117.851 46.6638C119.753 46.6638 121.364 46.1525 122.684 45.1301C124.003 44.1076 125.002 42.7463 125.68 41.0461C126.369 39.346 126.714 37.4734 126.714 35.4285C126.714 33.3835 126.369 31.505 125.68 29.793C125.002 28.0809 124.003 26.7077 122.684 25.6734C121.364 24.639 119.753 24.1218 117.851 24.1218C115.96 24.1218 114.349 24.639 113.018 25.6734C111.698 26.7077 110.693 28.0809 110.004 29.793C109.326 31.505 108.987 33.3835 108.987 35.4285C108.987 37.4734 109.326 39.346 110.004 41.0461C110.693 42.7463 111.698 44.1076 113.018 45.1301C114.338 46.1525 115.949 46.6638 117.851 46.6638ZM155.28 27.6173L152.373 28.4376C152.087 27.6173 151.683 26.8742 151.16 26.2084C150.637 25.5426 149.953 25.0135 149.109 24.6212C148.277 24.2288 147.242 24.0327 146.006 24.0327C144.151 24.0327 142.629 24.4726 141.44 25.3524C140.252 26.2322 139.657 27.3676 139.657 28.7586C139.657 29.9357 140.061 30.8927 140.87 31.6299C141.69 32.3551 142.95 32.9317 144.651 33.3598L148.788 34.3763C151.083 34.9351 152.801 35.8208 153.942 37.0335C155.095 38.2462 155.672 39.768 155.672 41.599C155.672 43.1446 155.244 44.5178 154.388 45.7186C153.532 46.9194 152.337 47.8646 150.803 48.5542C149.281 49.2318 147.516 49.5707 145.507 49.5707C142.832 49.5707 140.626 48.9703 138.89 47.7695C137.154 46.5568 136.043 44.8091 135.555 42.5263L138.605 41.7773C138.997 43.4061 139.764 44.6367 140.905 45.4689C142.059 46.3012 143.575 46.7173 145.453 46.7173C147.557 46.7173 149.24 46.2476 150.5 45.3084C151.76 44.3573 152.39 43.1683 152.39 41.7416C152.39 40.6359 152.022 39.7086 151.285 38.9596C150.548 38.1987 149.43 37.6399 147.932 37.2832L143.456 36.2132C141.078 35.6425 139.318 34.7389 138.177 33.5024C137.036 32.2659 136.465 30.7322 136.465 28.9013C136.465 27.3914 136.875 26.0657 137.695 24.9244C138.516 23.7711 139.645 22.8675 141.084 22.2136C142.522 21.5597 144.163 21.2328 146.006 21.2328C148.515 21.2328 150.518 21.8034 152.016 22.9448C153.526 24.0743 154.614 25.6318 155.28 27.6173ZM173.697 49.5707C171.141 49.5707 168.93 48.9762 167.063 47.7873C165.197 46.5865 163.752 44.9279 162.73 42.8117C161.719 40.6835 161.214 38.2343 161.214 35.4641C161.214 32.7058 161.719 30.2567 162.73 28.1166C163.752 25.9647 165.161 24.2823 166.956 23.0696C168.763 21.8451 170.85 21.2328 173.216 21.2328C174.702 21.2328 176.135 21.5062 177.514 22.0531C178.893 22.5881 180.129 23.4144 181.223 24.532C182.329 25.6377 183.203 27.0347 183.845 28.723C184.487 30.3993 184.808 32.3848 184.808 34.6795V36.2488H163.407V33.4489H181.562C181.562 31.6893 181.205 30.1081 180.492 28.7051C179.791 27.2903 178.81 26.1727 177.549 25.3524C176.301 24.532 174.857 24.1218 173.216 24.1218C171.48 24.1218 169.952 24.5855 168.633 25.5129C167.313 26.4402 166.279 27.6648 165.529 29.1866C164.792 30.7085 164.418 32.3729 164.406 34.1801V35.8565C164.406 38.0322 164.78 39.9345 165.529 41.5633C166.29 43.1802 167.366 44.4345 168.757 45.3262C170.148 46.2179 171.795 46.6638 173.697 46.6638C174.993 46.6638 176.129 46.4617 177.104 46.0574C178.09 45.6532 178.917 45.1122 179.583 44.4345C180.26 43.745 180.771 42.99 181.116 42.1697L184.13 43.1505C183.714 44.3038 183.03 45.3678 182.079 46.3428C181.14 47.3177 179.963 48.1024 178.548 48.6968C177.145 49.2794 175.528 49.5707 173.697 49.5707ZM223.012 25.2632H215.201C215.058 24.2526 214.767 23.355 214.327 22.5703C213.887 21.7737 213.323 21.096 212.633 20.5372C211.943 19.9784 211.147 19.5504 210.243 19.2532C209.352 18.956 208.383 18.8074 207.336 18.8074C205.446 18.8074 203.799 19.277 202.396 20.2162C200.993 21.1436 199.906 22.499 199.133 24.2823C198.36 26.0538 197.974 28.2058 197.974 30.7382C197.974 33.3419 198.36 35.5295 199.133 37.301C199.918 39.0725 201.011 40.41 202.414 41.3136C203.817 42.2172 205.44 42.669 207.283 42.669C208.317 42.669 209.274 42.5323 210.154 42.2588C211.046 41.9854 211.836 41.5871 212.526 41.064C213.216 40.5289 213.786 39.881 214.238 39.1201C214.702 38.3592 215.023 37.4912 215.201 36.5163L223.012 36.552C222.81 38.2284 222.305 39.8453 221.496 41.4028C220.7 42.9484 219.624 44.3335 218.268 45.5581C216.925 46.7708 215.32 47.7338 213.453 48.4472C211.599 49.1486 209.5 49.4993 207.158 49.4993C203.9 49.4993 200.988 48.7622 198.419 47.288C195.863 45.8137 193.842 43.6796 192.356 40.8856C190.882 38.0917 190.145 34.7092 190.145 30.7382C190.145 26.7553 190.894 23.3669 192.392 20.5729C193.89 17.7789 195.923 15.6508 198.491 14.1884C201.059 12.7141 203.948 11.977 207.158 11.977C209.274 11.977 211.236 12.2742 213.043 12.8687C214.862 13.4632 216.473 14.3311 217.876 15.4724C219.279 16.6019 220.42 17.987 221.3 19.6277C222.192 21.2684 222.763 23.1469 223.012 25.2632ZM228.55 49V12.4764H242.959C245.718 12.4764 248.072 12.9698 250.022 13.9566C251.983 14.9315 253.475 16.3166 254.498 18.1118C255.532 19.8952 256.049 21.9937 256.049 24.4072C256.049 26.8326 255.526 28.9191 254.48 30.6668C253.434 32.4027 251.918 33.7343 249.932 34.6616C247.959 35.589 245.569 36.0527 242.763 36.0527H233.115V29.8465H241.515C242.989 29.8465 244.214 29.6444 245.189 29.2401C246.164 28.8359 246.889 28.2296 247.364 27.4211C247.852 26.6126 248.096 25.608 248.096 24.4072C248.096 23.1945 247.852 22.172 247.364 21.3398C246.889 20.5075 246.158 19.8774 245.171 19.4494C244.196 19.0095 242.965 18.7895 241.479 18.7895H236.272V49H228.55ZM248.274 32.3789L257.351 49H248.827L239.945 32.3789H248.274ZM261.507 49V12.4764H286.117V18.843H269.229V27.5459H284.851V33.9126H269.229V42.6333H286.189V49H261.507ZM300.478 49L290.027 12.4764H298.463L304.508 37.8539H304.812L311.481 12.4764H318.704L325.356 37.9074H325.677L331.723 12.4764H340.158L329.708 49H322.182L315.226 25.1205H314.941L308.004 49H300.478Z" fill="white"/>
</svg>
